<?xml version="1.0" encoding="UTF-8"?>
<svg width="30px" height="30px" viewBox="0 0 30 30" version="1.1" xmlns="http://www.w3.org/2000/svg" xmlns:xlink="http://www.w3.org/1999/xlink">
    <!-- Generator: Sketch 51.2 (57519) - http://www.bohemiancoding.com/sketch -->
    <title>moon</title>
    <desc>Created with Sketch.</desc>
    <defs></defs>
    <g id="Page-1" stroke="none" stroke-width="1" fill="none" fill-rule="evenodd">
        <g id="moon">
            <g id="Group">
                <path d="M29.9727907,24.375 C29.9727907,27.4814063 27.474186,30 24.3913953,30 L5.78674419,30 C2.7044186,30 0.205348837,27.4814063 0.205348837,24.375 L0.205348837,5.625 C0.205348837,2.51859375 2.7044186,0 5.78674419,0 L24.3913953,0 C27.474186,0 29.9727907,2.51859375 29.9727907,5.625 L29.9727907,24.375 Z" id="Shape" fill="#0F2438"></path>
                <path d="M16.6888372,23.9964844 C12.9493023,23.9964844 9.57674419,21.6166406 8.29627907,18.0738281 C6.61162791,13.4116406 9.00534884,8.23710938 13.6323256,6.53859375 C14.5472093,6.20320313 15.5181395,6.0234375 16.517907,6.00375 C16.6637209,6.00539063 16.8013953,6.09398438 16.8525581,6.23484375 C16.9034884,6.37617188 16.8597674,6.53414063 16.7439535,6.62882813 C14.0060465,8.8575 12.9734884,12.5899219 14.1744186,15.9166406 C15.3525581,19.1772656 18.4613953,21.3684375 21.9102326,21.3684375 C21.9625581,21.3684375 22.0151163,21.3679688 22.0674419,21.3665625 C22.0697674,21.3665625 22.072093,21.3665625 22.074186,21.3665625 C22.2204651,21.3665625 22.3516279,21.4591406 22.4016279,21.5976563 C22.4530233,21.7392188 22.4093023,21.8969531 22.2930233,21.991875 C21.5148837,22.6253906 20.6555814,23.1171094 19.7395349,23.4520313 C18.7546512,23.8134375 17.727907,23.9964844 16.6888372,23.9964844 Z" id="Shape" fill="#FFFFFF" fill-rule="nonzero"></path>
            </g>
        </g>
    </g>
</svg>