<?xml version="1.0" encoding="UTF-8"?>
<svg width="30px" height="30px" viewBox="0 0 30 30" version="1.1" xmlns="http://www.w3.org/2000/svg" xmlns:xlink="http://www.w3.org/1999/xlink">
    <!-- Generator: Sketch 51.2 (57519) - http://www.bohemiancoding.com/sketch -->
    <title>sun</title>
    <desc>Created with Sketch.</desc>
    <defs></defs>
    <g id="Page-1" stroke="none" stroke-width="1" fill="none" fill-rule="evenodd">
        <g id="sun" fill-rule="nonzero">
            <path d="M30,24.4181395 C30,27.5004651 27.481875,29.9995349 24.375,29.9995349 L5.625,29.9995349 C2.51859375,29.9995349 0,27.5004651 0,24.4181395 L0,5.81348837 C0,2.73116279 2.51859375,0.232093023 5.625,0.232093023 L24.375,0.232093023 C27.481875,0.232093023 30,2.73116279 30,5.81348837 L30,24.4181395 Z" id="Shape" fill="#FFFFFF"></path>
            <path d="M15,7.52767442 C14.8054688,7.52767442 14.6484375,7.37139535 14.6484375,7.17883721 L14.6484375,3.98488372 C14.6484375,3.79232558 14.8054688,3.63604651 15,3.63604651 C15.1940625,3.63604651 15.3515625,3.79232558 15.3515625,3.98488372 L15.3515625,7.17883721 C15.3515625,7.37139535 15.1940625,7.52767442 15,7.52767442 Z" id="Shape" fill="#0F2438"></path>
            <path d="M15,26.5955814 C14.8054688,26.5955814 14.6484375,26.4393023 14.6484375,26.2467442 L14.6484375,23.0523256 C14.6484375,22.8597674 14.8054688,22.7034884 15,22.7034884 C15.1940625,22.7034884 15.3515625,22.8597674 15.3515625,23.0523256 L15.3515625,26.2467442 C15.3515625,26.4393023 15.1940625,26.5955814 15,26.5955814 Z" id="Shape" fill="#0F2438"></path>
            <path d="M26.2178906,15.4646512 L22.9975781,15.4646512 C22.8030469,15.4646512 22.6460156,15.3083721 22.6460156,15.115814 C22.6460156,14.9232558 22.8030469,14.7669767 22.9975781,14.7669767 L26.2178906,14.7669767 C26.4119531,14.7669767 26.5694531,14.9232558 26.5694531,15.115814 C26.5694531,15.3083721 26.4119531,15.4646512 26.2178906,15.4646512 Z" id="Shape" fill="#0F2438"></path>
            <path d="M7.00195312,15.4646512 L3.78234375,15.4646512 C3.5878125,15.4646512 3.43078125,15.3083721 3.43078125,15.115814 C3.43078125,14.9232558 3.5878125,14.7669767 3.78234375,14.7669767 L7.00171875,14.7669767 C7.19578125,14.7669767 7.35328125,14.9232558 7.35328125,15.115814 C7.35328125,15.3083721 7.19601562,15.4646512 7.00195312,15.4646512 Z" id="Shape" fill="#0F2438"></path>
            <path d="M15.0002344,20.7534884 C11.8673437,20.7525581 9.31851562,18.2234884 9.31851562,15.115814 C9.31851562,12.007907 11.8673437,9.47860465 15.0002344,9.47790698 C18.1328906,9.47790698 20.6817188,12.0069767 20.6817188,15.115814 C20.6817188,18.2244186 18.1328906,20.7534884 15.0002344,20.7534884 Z" id="Shape" fill="#0F2438"></path>
            <path d="M20.6557031,9.8527907 C20.5654688,9.8527907 20.4757031,9.81883721 20.4070312,9.75069767 C20.2696875,9.6144186 20.2696875,9.39372093 20.4070312,9.25744186 L22.6839844,6.99813953 C22.8213281,6.86186047 23.04375,6.86186047 23.1810938,6.99813953 C23.3184375,7.1344186 23.3184375,7.35511628 23.1810938,7.49139535 L20.9041406,9.75069767 C20.8354688,9.81883721 20.7454688,9.8527907 20.6557031,9.8527907 Z" id="Shape" fill="#0F2438"></path>
            <path d="M7.0678125,23.335814 C6.97757812,23.335814 6.8878125,23.3018605 6.81914063,23.2337209 C6.68179688,23.0974419 6.68179688,22.8769767 6.81914063,22.7406977 L9.0965625,20.4806977 C9.23390625,20.3444186 9.45632812,20.3444186 9.59367188,20.4806977 C9.73101563,20.6169767 9.73101563,20.8376744 9.59367188,20.9739535 L7.31625,23.2337209 C7.24757813,23.3016279 7.15757813,23.335814 7.0678125,23.335814 Z" id="Shape" fill="#0F2438"></path>
            <path d="M9.34476563,9.8527907 C9.25453125,9.8527907 9.16476563,9.81883721 9.09609375,9.75069767 L6.81914063,7.49139535 C6.68179688,7.35511628 6.68179688,7.1344186 6.81914063,6.99813953 C6.95648437,6.86186047 7.17890625,6.86186047 7.31625,6.99813953 L9.59320312,9.25744186 C9.73054687,9.39372093 9.73054687,9.6144186 9.59320312,9.75069767 C9.52453125,9.81883721 9.43429687,9.8527907 9.34476563,9.8527907 Z" id="Shape" fill="#0F2438"></path>
            <path d="M22.9326563,23.335814 C22.8424219,23.335814 22.7526563,23.3018605 22.6839844,23.2337209 L20.4070312,20.9744186 C20.2696875,20.8381395 20.2696875,20.6174419 20.4070312,20.4811628 C20.544375,20.3448837 20.7667969,20.3448837 20.9041406,20.4811628 L23.1810938,22.7406977 C23.3184375,22.8769767 23.3184375,23.0974419 23.1810938,23.2337209 C23.1124219,23.3016279 23.0224219,23.335814 22.9326563,23.335814 Z" id="Shape" fill="#0F2438"></path>
        </g>
    </g>
</svg>