<svg viewBox="0 0 600 600" xmlns="http://www.w3.org/2000/svg"><g id="moon-svg" stroke="none" stroke-width="1" fill="none" fill-rule="evenodd"><g id="moon" transform="translate(99 120)"><path d="M205.722 2c48.768 0 93.954 19.767 126.764 51.977 32.221 31.632 52.507 75.27 52.507 123.98h0l.001 1.23v2.031c-.043 5.2 4.078 9.501 8.407 13.62.23.218.461.436.693.653l.696.652c2.932 2.748 5.692 5.494 5.148 8.91-.148.93-.279 1.882-.403 2.853h0l-.119.957-.173 1.435-.054.46-.109.92h0l-.11.92c-.627 5.203-1.418 10.27-4.271 13.374-2.194 2.388-5.077 4.106-7.998 5.807h0l-.85.494-1.275.744c-4.887 2.875-9.48 6.063-11.786 11.565-12.972 30.953-38.252 59.69-68.915 80.502C274.148 345.26 239.343 358 205.722 358c-34.711 0-67.626-11.957-95.547-31.567-29.78-20.915-53.885-50.535-68.444-83.7-3.265-7.435-10.638-12.243-18.37-16.916l-.949-.571c-5.375-3.234-10.815-6.47-14.72-10.807-5.29-5.878-5.642-15.457-5.674-24.2h0l-.001-1.025c0-.777.002-1.547.005-2.308.002-.744.005-1.479.005-2.204h0v-.674l-.001-.184-.001-.417-.004-1.922c-.006-2.89-.015-7.232-.019-11.304h0v-.95L2 164.426c.002-2.46.01-4.293.025-4.798.28-8.927 8.601-14.555 16.795-20.23l.745-.515 1.395-.97h0l1.001-.701c7.203-5.061 13.821-10.401 16.151-17.441 11.66-35.229 34.297-64.682 63.662-85.321C131.119 13.824 167.179 2 205.722 2z" id="outer_circle" stroke="#222" stroke-width="4" fill="#979899"/><path d="M215.685 105c15.534 1.665 26.837 3.513 33.909 5.545 40.152 11.536 69.33 31.132 87 53.953 11.501 14.856 25.254 22.973 37.13 55.363 1.656 4.518 19.582 13.173 21.178 19.116 1.29 4.804 5.365 10.926 3.708 21.474-.835 5.316-14.95 10.73-14.95 21.907 0 7.217-.412 27.492-4.6 45.271-1.615 6.855-5.298 16.312-11.048 28.371-10.892-58.586-35.112-100.702-72.66-126.35-22.737-15.532-72.727-46.041-130.647-44.202-25.15.798-70.053 16.29-134.705 46.474 4.057-4.43 7.021-8.136 8.893-11.12 12.062-19.222 20.802-35.699 26.051-42.851 7.035-9.586 16.558-18.874 23.799-25.986 4.525-4.445 11.87-9.776 19.203-15.071 12.593-9.096 32.075-18.798 47.582-24.318 12.495-4.448 32.548-6.973 60.157-7.576z" id="Triangle" fill="#AFAFB0" transform="matrix(1 0 0 -1 0 461)"/><g id="left_crater" transform="translate(2 147)"><path d="M7.59 68.605c1.023 0 3.251-2.842 4.737-9.578 1.309-5.929 1.951-15.187 1.951-23.823 0-11.533-1.977-23.364-3.844-29.365C9.316 2.24 8.311 1.803 7.59 1.803c-.856 0-4.588 1.08-6.087 6.68-1.87 6.986-1.46 19.615-1.46 29.855 0 18.447 5.623 30.267 7.547 30.267z" id="Oval" fill="#6D6E6F"/><path d="M7.868 0c2.07 3.202 3.36 5.838 3.87 7.91 2.455 9.975 2.465 20.004 2.465 26.146 0 6.018.887 15.494-1.47 25.875-.532 2.342-2.154 5.68-4.865 10.014" id="Line-2" stroke="#222" stroke-width="4" stroke-linecap="round"/><path d="M12.327 11.127c2.84-.253 5.023-.688 6.55-1.304 1.527-.617 3.71-1.945 6.55-3.984M13.442 54.827c2.992-.373 5.323-.56 6.994-.56 1.67 0 3.724.793 6.158 2.38M14.278 26.436c4.151-.162 7.047-.401 8.687-.717 1.64-.316 2.85-.754 3.629-1.314M14.975 40.493h9.016c1.368 0 3.674.402 6.919 1.208" id="Line-4" stroke="#222" stroke-width="4" stroke-linecap="round"/></g><g id="upper_crater" transform="translate(274 45)" stroke="#222" stroke-width="4"><path d="M38.443-.712c1.534 0 2.945 1.129 4.179 2.964 1.465 2.18 2.644 5.372 3.375 9.546.653 3.734 1.005 10.17 1.007 14.618 0 .727.003 1.461.005 2.199h0l.004 1.244c.018 5.608-.01 11.295-1.146 15.257-.79 2.76-1.97 4.978-3.315 6.53-1.149 1.326-2.396 2.21-3.59 2.21-.647 0-1.265-.552-1.885-1.17-1.053-1.051-2.032-2.549-2.805-4.172-2.391-5.016-3.434-13.042-3.437-22.107 0-.912-.005-1.82-.01-2.72-.03-5.893-.098-11.476 1.17-15.678.825-2.736 1.987-5.018 3.305-6.616.998-1.212 2.056-2.105 3.143-2.105z" id="Oval" fill="#6D6E6F" transform="rotate(130 38.915 26.572)"/><path d="M59.846 45.253c-.494 3.137-.675 5.577-.543 7.32.131 1.742.68 4.181 1.648 7.319M47.96 43.596c-.908 2.89-1.46 5.146-1.66 6.767-.198 1.62-.198 3.876 0 6.766M36.626 36.69c-.954 1.379-1.636 2.507-2.049 3.384-.412.877-.788 2.005-1.13 3.383M29.163 30.062c-.794 1.221-1.416 2.274-1.866 3.156-.45.883-1.072 2.27-1.866 4.163" id="Line-5" stroke-linecap="round"/><path d="M22.252 24.261c-.888 1.378-1.73 2.278-2.523 2.698-.795.42-2.303.764-4.526 1.031" id="Line-5-Copy" stroke-linecap="round"/><path d="M17.83 17.356c-1.142 1.446-2.133 2.431-2.975 2.955-.843.524-2.293 1.058-4.35 1.603" id="Line-5-Copy-3" stroke-linecap="round"/><path d="M16.678 9.906c-2.898 1.928-5.346 3.156-7.345 3.685-2 .53-5.11.726-9.333.59" id="Line-5" stroke-linecap="round"/></g><g id="middle_crater" transform="translate(150 155)" stroke="#222" stroke-width="4"><ellipse id="Oval" fill="#6D6E6F" cx="14.508" cy="13.239" rx="8.599" ry="8.452"/><path id="Line-6" stroke-linecap="round" d="M13.252 4.041V.139M7.116 6.828c-.678-.71-1.14-1.244-1.386-1.6-.246-.357-.52-.89-.822-1.601M4.048 11.567c-.76-.248-1.435-.392-2.024-.434C1.435 11.091.761 10.9 0 10.558M21.899 6.828l2.65-2.647M21.062 20.207c.967 1.098 1.839 1.873 2.616 2.324.777.452 1.904.838 3.381 1.16M16.6 22.715l.697 2.648.697 2.648M12.146 21.949c-.407 1.263-.81 2.235-1.212 2.914-.401.68-.674 1.582-.819 2.706M5.73 16.096c-.113 1.054-.72 1.844-1.822 2.368-1.1.524-1.861 1.033-2.281 1.527M24.688 13.796c.83.505 1.55.78 2.16.828.609.047 1.702-.09 3.28-.41"/></g><g id="bottom_crater" transform="translate(169 324)" stroke="#222" stroke-width="4"><path d="M23.768 9.876c5.276.001 15.3.42 20.462 1.813 2.294.619 3.802 1.375 4.754 2.204.947.824 1.203 1.684 1.203 2.34 0 .674-.632 1.422-1.533 2.11-1.093.835-2.67 1.543-4.751 1.957-3.4.676-9.202 1.804-13.478 1.127-3.727-.59-9.725-1.554-13.092-2.573-2.39-.723-4.118-1.69-5.292-2.732-1.133-1.004-1.752-2.041-1.752-2.86 0-.409.1-.784.386-1.104.402-.45 1.047-.792 1.93-1.099 2.263-.787 5.822-1.183 11.163-1.183z" id="Oval" fill="#6D6E6F" transform="rotate(-9 30.238 15.752)"/><path d="M9.314 15.647c-1.547-2.258-2.823-3.78-3.83-4.565C4.478 10.297 2.78 9.496.39 8.68" id="Line-7" stroke-linecap="round"/><path d="M17.043 10.799c-.4-3.627-.703-5.705-.91-6.233a9.406 9.406 0 00-.822-1.6" id="Line-6" stroke-linecap="round"/><path d="M30.791.596c.337 1.89.506 3.33.506 4.32 0 .991-.169 2.431-.506 4.32M59.939 2.13c-2.244 1.593-3.912 3.066-5.002 4.42-1.091 1.354-2.492 3.69-4.203 7.007M47.387.106c-1.001 1.546-1.606 2.824-1.813 3.835-.207 1.01-.207 2.683 0 5.017" id="Line-8" stroke-linecap="round"/></g><g id="right_crater" transform="translate(380 195)"><ellipse id="Oval" fill="#6D6E6F" transform="rotate(14 13.19 19.915)" cx="13.189" cy="19.915" rx="5.013" ry="16.272"/><path d="M15.236 2.888c-1.251 1.165-2.221 2.357-2.91 3.575-1.658 2.93-2.729 7.125-3.335 9.64-.687 2.852-2.29 8.837-2.434 14.5-.041 1.63.229 3.473.809 5.526" id="Line" stroke="#222" stroke-width="4" stroke-linecap="round"/><path d="M4.465 0c.89 1.621 1.757 2.864 2.604 3.728.846.863 2.414 2.106 4.702 3.727M0 28.854c1.318-.828 2.361-1.366 3.13-1.614.767-.249 1.992-.444 3.674-.587" id="Line-3" stroke="#222" stroke-width="4" stroke-linecap="round"/></g><path d="M205.722 2.5c48.633 0 93.694 19.713 126.414 51.834 32.128 31.54 52.357 75.053 52.357 123.624h0l.001 1.228v2.03c-.042 5.322 4.117 9.755 8.562 13.984.146.14.294.278.442.416l.669.622.446.414.444.414c2.577 2.416 4.871 4.872 4.388 7.908-.15.935-.281 1.893-.406 2.87h0l-.119.954-.173 1.44-.055.463-.163 1.389c-.617 5.245-1.324 10.415-4.198 13.544-2.161 2.352-5.005 4.038-7.881 5.713h0l-.85.494-1.278.745c-4.983 2.931-9.645 6.198-11.994 11.803-12.936 30.87-38.154 59.526-68.734 80.281-29.642 20.119-64.345 32.83-97.872 32.83-34.608 0-67.423-11.925-95.26-31.476-29.705-20.863-53.75-50.41-68.274-83.491-3.435-7.826-11.348-12.8-19.518-17.716l-.615-.37-1.23-.741c-4.712-2.85-9.335-5.795-12.76-9.601-5.218-5.798-5.515-15.259-5.547-23.867h0l-.001-1.024c0-.776.002-1.546.005-2.306.002-.744.005-1.48.005-2.207h0v-.674l-.001-.184-.001-.416-.004-1.923c-.006-2.889-.015-7.232-.019-11.304h0v-.948l-.001-4.826c.002-2.453.009-4.28.025-4.783.25-7.992 7.11-13.254 14.4-18.326l.73-.507h0l1.464-1.011h0l.73-.507c.466-.322.93-.645 1.397-.97h0l1.003-.702c7.301-5.131 13.978-10.563 16.338-17.693 11.625-35.125 34.197-64.491 63.474-85.07C131.325 14.29 167.286 2.5 205.722 2.5z" id="outer_circle" stroke="#222" stroke-width="5"/></g><g id="satellite" transform="rotate(49 163.672 334.519)"><g id="shell" transform="translate(66.774 3.833)"><circle id="external_circle" fill="#8F8A8A" cx="23" cy="23" r="23"/><path d="M22.76 45.674c12.786 0 14.761-6.806 17.558-8.121 3.628-1.706-4.595 1.388-14.528-3.771-2.667-1.386-5.464-3.457-8.2-6.54-12.924-14.57.628-28.137-4.632-24.515C7.004 6.827.627 10.297.627 23S9.975 45.674 22.76 45.674z" id="external_circle" fill="#575252"/><ellipse id="sat-light" stroke="#222" stroke-width=".5" fill="#B40006" transform="rotate(33 35.715 10.436)" cx="35.715" cy="10.436" rx="1.598" ry="1.324"/><circle id="external_circle" stroke="#222" stroke-width="2" cx="23" cy="23" r="22"/></g><g id="reflex" transform="translate(104.787 27.795)"><path d="M3.931 0c.012 1.402-.086 2.505-.295 3.308-.21.803-.677 1.906-1.404 3.308" id="Line-9" stroke="#CFCACA" stroke-width="2" stroke-linecap="round"/><ellipse id="Oval" fill="#CFCACA" cx="1.034" cy="8.986" rx="1.034" ry="1"/></g><g id="middle_antenna" transform="translate(15.349 25.416)"><path id="Line-10" stroke="#222" stroke-width="2" stroke-linecap="round" d="M70.513 4.852L.068 68.806"/><path d="M73.62 1.814c.422.443.668.864.755 1.26.08.364.019.703-.177.986h0L72.52 5.41c-.365.277-.808.38-1.23.322a1.655 1.655 0 01-1.096-.642 1.529 1.529 0 01.267-2.121h0l1.667-1.325a1.06 1.06 0 011.493.17z" id="Rectangle" stroke="#CDC8C8" stroke-width=".5" fill="#222"/><circle id="Oval" fill="#CDC8C8" cx="72.207" cy="3.692" r="1"/></g><g id="right_antenna" transform="translate(44.893 37.862)"><path id="Line-10" stroke="#222" stroke-width="2" stroke-linecap="round" d="M57.23 7.451L.068 82.806"/><path d="M60.174 3.246c.433.263.699.7.756 1.211.049.44-.065.883-.32 1.245h0L59.374 7.46a1.7 1.7 0 01-1.102.699c-.42.073-.868-.01-1.248-.268-.45-.538-.682-1.055-.727-1.527-.048-.499.118-.941.437-1.29h0l1.875-2.05c.633-.112 1.167-.02 1.566.222z" id="Rectangle" stroke="#CDC8C8" stroke-width=".5" fill="#222"/><circle id="Oval" fill="#CDC8C8" cx="58.581" cy="5.471" r="1"/></g><g id="left_antenna" transform="scale(1 -1) rotate(88 73.089 8.656)"><path id="Line-10" stroke="#222" stroke-width="2" stroke-linecap="round" d="M52.752 7.408L.018 78.863"/><path d="M55.708 3.233c.434.264.7.702.756 1.214.048.443-.068.889-.327 1.252h0l-1.223 1.716a1.723 1.723 0 01-1.122.7 1.723 1.723 0 01-1.264-.28c-.446-.53-.676-1.041-.72-1.51-.046-.493.12-.932.44-1.276h0l1.89-2.04c.635-.111 1.17-.018 1.57.224z" id="Rectangle" stroke="#CDC8C8" stroke-width=".5" fill="#222"/><circle id="Oval" fill="#CDC8C8" cx="54.113" cy="5.44" r="1"/></g></g></g></svg>